<?xml version="1.0" encoding="utf-8"?>
<!-- Generator: Adobe Illustrator 23.0.3, SVG Export Plug-In . SVG Version: 6.00 Build 0)  -->
<svg version="1.1" id="Layer_1" xmlns="http://www.w3.org/2000/svg" xmlns:xlink="http://www.w3.org/1999/xlink" x="0px" y="0px"
	 viewBox="0 0 1024 1024" style="enable-background:new 0 0 1024 1024;" xml:space="preserve">
<style type="text/css">
	.st0{fill:#FFFFFF;}
</style>
<g>
	<path class="st0" d="M814.36,505.39L958,747.42c0,0-168.31-2.47-187.48-9.6s-38.59-22.11-56.64-56.17s-83.3-147.1-79.65-181.19
		c3.65-34.09,7.29-61.29,68.92-136.18s56.63-84.3,119.03-91.33c47.82-5.39,165.78-0.12,165.78-0.12L814.36,505.39z"/>
	<path class="st0" d="M41.8,275.99c0,0,140.71-1.84,162.39,4.43s53.77,10.48,99.71,89.86s119.15,204.78,119.15,204.78
		s151.66-255.47,171.01-271.68c23.57-19.75,44.27-32.84,83.18-13.24c33.74,17,284.8,461.11,284.8,461.11s-189.19,14.98-229.01-32.59
		c-40.36-48.21-82.62-149.8-82.62-149.8s-92.24,131.5-111.73,153.4c-20.29,22.8-79.09,31.92-126.67,27.75
		c-41.52-3.64-96.82-16.7-139.85-76.83c-40.2-56.17-236.11-395.16-236.11-395.16l1.14-1.73L41.8,275.99z"/>
</g>
</svg>
